<svg width="200" height="271" viewBox="0 0 200 271" fill="none" xmlns="http://www.w3.org/2000/svg">
<g clip-path="url(#clip0_215_50)">
<path d="M64.4953 208.963C64.4953 208.963 54.1844 214.959 71.8336 216.988C93.2156 219.427 104.143 219.078 127.706 214.618C127.706 214.618 133.902 218.502 142.552 221.867C89.7312 244.506 23.0063 220.556 64.4953 208.963M58.0406 179.421C58.0406 179.421 46.4758 187.982 64.1383 189.809C86.9789 192.165 105.016 192.358 136.229 186.348C136.229 186.348 140.546 190.724 147.334 193.118C83.4695 211.793 12.3359 194.591 58.0406 179.421" fill="#5382A1"/>
<path d="M112.455 129.309C125.47 144.293 109.035 157.777 109.035 157.777C109.035 157.777 142.083 140.717 126.905 119.353C112.73 99.4313 101.859 89.5313 160.709 55.4016C160.709 55.4016 68.3352 78.4719 112.455 129.308" fill="#E76F00"/>
<path d="M182.316 230.814C182.316 230.814 189.946 237.101 173.912 241.965C143.423 251.202 47.0117 253.991 20.2289 242.333C10.6016 238.145 28.6563 232.333 34.3352 231.112C40.2578 229.828 43.643 230.068 43.643 230.068C32.9359 222.525 -25.5625 244.878 13.9289 251.279C121.627 268.745 210.251 243.415 182.316 230.814ZM69.4531 148.812C69.4531 148.812 20.4133 160.461 52.0875 164.69C65.4609 166.48 92.1211 166.076 116.955 163.995C137.25 162.284 157.629 158.643 157.629 158.643C157.629 158.643 150.473 161.708 145.295 165.243C95.4953 178.341 -0.709375 172.248 26.9867 158.85C50.4094 147.528 69.4539 148.812 69.4539 148.812M157.427 197.986C208.052 171.68 184.645 146.4 168.307 149.806C164.302 150.639 162.517 151.361 162.517 151.361C162.517 151.361 164.004 149.033 166.843 148.025C199.163 136.662 224.02 181.538 156.409 199.312C156.409 199.312 157.193 198.612 157.427 197.986Z" fill="#5382A1"/>
<path d="M126.905 0.289844C126.905 0.289844 154.942 28.3367 100.314 71.4625C56.5086 106.058 90.325 125.783 100.296 148.32C74.7258 125.249 55.9602 104.94 68.55 86.0383C87.0273 58.2906 138.217 44.8383 126.905 0.289062" fill="#E76F00"/>
<path d="M74.4281 269.27C123.021 272.38 197.641 267.544 199.408 244.551C199.408 244.551 196.011 253.268 159.248 260.19C117.773 267.995 66.6203 267.084 36.2805 262.081C36.2812 262.081 42.4914 267.222 74.4289 269.27" fill="#5382A1"/>
</g>
<defs>
<clipPath id="clip0_215_50">
<rect width="200" height="270.312" fill="white"/>
</clipPath>
</defs>
</svg>
