<svg width="310" height="369" viewBox="0 0 310 369" fill="none" xmlns="http://www.w3.org/2000/svg">
<path d="M201.442 1.71991C197.03 2.1806 191.457 2.87164 189.251 3.21713C185.42 3.793 184.142 4.02335 177.408 5.75092C175.899 6.09641 173.925 6.5571 172.996 6.78745C172.068 7.01779 171.139 7.24814 171.023 7.36331C170.79 7.59363 170.21 7.82397 169.513 7.93915C168.933 8.05432 168.12 8.39984 167.772 8.51501C167.423 8.63019 166.843 8.86053 166.378 9.09085C165.798 9.20602 164.637 9.55154 163.708 9.89706C162.779 10.3578 160.922 10.9336 159.644 11.5095C158.367 11.9702 156.974 12.2005 156.51 12.2005C155.929 12.0853 155.581 12.4308 155.581 13.1219C155.581 13.8129 155.232 14.1584 154.768 14.0432C152.33 13.3522 132.592 24.9845 121.91 33.3919C83.1312 63.7971 62.6968 105.374 62.6968 153.63C62.6968 161.577 63.1612 171.136 63.7417 174.937C64.4384 178.738 65.135 183.345 65.4833 185.302C65.7155 187.145 66.7604 191.176 67.6893 194.171C68.6181 197.28 69.1987 199.699 68.8503 199.699C68.502 199.699 68.7342 200.39 69.4309 201.081C70.1275 201.887 70.708 203.039 70.8241 203.73C71.1724 205.112 71.6369 206.609 72.3335 208.912C72.5657 209.834 72.914 211.101 73.1462 211.792C73.2623 212.368 76.0488 218.011 79.1837 224.345C102.405 269.032 151.865 302.777 199.701 306.232C204.461 306.577 210.382 307.153 212.82 307.384L217.116 307.96V292.642V277.209L207.596 276.518C185.42 274.905 161.038 265.577 140.487 250.835C128.064 241.851 124.581 238.511 118.892 230.219C116.686 226.994 112.738 221.351 110.184 217.55C96.7155 198.317 93.4646 186.685 92.0713 153.63C91.4908 137.276 91.6069 134.051 93.3485 130.942C94.3934 128.869 95.2061 126.45 95.2061 125.414C95.2061 123.225 96.2511 120.692 105.075 102.379C114.015 83.8368 127.019 67.4825 141.88 56.1958C148.15 51.3586 166.495 40.9932 169.862 40.3022C170.558 40.0719 172.88 39.2657 174.738 38.5746C176.712 37.7684 179.15 36.8471 180.311 36.6167C181.356 36.3864 183.33 35.9257 184.607 35.5802C196.682 32.5858 203.3 31.5492 210.266 31.5492H217.116V16.1163V0.68338L213.401 0.798553C211.311 0.798553 205.97 1.25925 201.442 1.71991Z" fill="#FDFDFD"/>
<path d="M213.052 62.2995C210.498 62.5299 204.809 63.2209 200.281 63.9119C195.869 64.7181 192.037 65.1788 191.805 65.0636C191.689 64.9484 189.948 65.7546 188.09 66.676C186.116 67.7125 184.607 68.1732 184.607 67.7125C184.607 67.2519 183.91 67.5974 183.097 68.2884C182.169 68.9794 181.124 69.2098 180.775 68.7491C180.311 68.4036 179.963 68.6339 179.963 69.4401C179.963 70.2463 179.498 70.4767 178.801 70.1311C178.221 69.7856 177.64 70.016 177.64 70.8222C177.64 71.6284 177.292 71.9739 176.944 71.5132C176.015 70.5918 159.992 81.3027 153.491 87.2916C128.18 110.441 118.427 147.987 128.992 181.962C131.198 189.103 136.539 198.777 145.479 211.676C158.019 229.988 188.438 245.652 211.659 245.767H217.116V199.698V153.63H263.558H310V150.29C310 145.338 306.633 128.984 304.775 124.377C303.73 122.073 303.034 120.115 303.15 120C303.498 118.964 299.434 111.593 294.094 103.416C276.678 76.8111 244.633 60.572 213.052 62.2995Z" fill="#FDFDFD"/>
<path d="M0 158.122C0 166.184 2.4382 186.224 4.7603 197.971C10.4494 225.958 25.427 259.588 42.1461 281.47C74.5393 323.853 122.026 353.913 172.416 364.163C185.071 366.812 203.416 369 211.891 369H217.116V354.143C217.116 337.098 217.929 338.249 205.738 337.904C199.236 337.789 183.794 335.716 176.828 333.988C175.318 333.527 172.996 333.067 171.603 332.721C170.094 332.491 167.423 331.915 165.566 331.454C163.708 331.109 160.341 329.957 158.019 328.921C155.697 327.884 153.491 326.963 153.026 326.847C152.446 326.732 151.865 326.502 151.517 326.387C151.169 326.272 150.588 326.041 150.124 325.811C144.899 324.429 126.554 315.676 120.981 311.99C118.659 310.378 113.667 307.153 109.951 304.735C95.0899 294.945 73.7266 273.063 62.2322 255.672C43.7715 227.8 33.6704 198.086 31.4644 165.147L30.7678 154.206L15.4419 153.861L0 153.515V158.122Z" fill="#FDFDFD"/>
</svg>
