<svg width="200" height="200" viewBox="0 0 200 200" fill="none" xmlns="http://www.w3.org/2000/svg">
<path d="M99.2813 13.125C54.9063 13.125 57.7125 32.3125 57.7125 32.3125V52.25H99.9125V58.5H40.9063C40.9063 58.5 12.5 55 12.5 100.031C12.5 145.063 37.5813 143.231 37.5813 143.231H52.0625V122.225C52.0625 122.225 51.25 97.1438 76.4375 97.1438H118.7C118.7 97.1438 142.275 97.5188 142.275 74.3188V36.25C142.275 36.25 145.85 13.05 99.5125 13.05L99.2813 13.125ZM75.9563 26.4813C77.4565 26.4434 78.9343 26.8513 80.2027 27.6534C81.4711 28.4554 82.4732 29.6156 83.0822 30.9872C83.6913 32.3588 83.8799 33.8802 83.6242 35.359C83.3685 36.8378 82.6801 38.2076 81.6459 39.2951C80.6117 40.3826 79.2783 41.139 77.8142 41.4686C76.3501 41.7982 74.8212 41.6863 73.4207 41.1469C72.0203 40.6076 70.8112 39.665 69.9464 38.4385C69.0817 37.212 68.6001 35.7566 68.5625 34.2563V34.1313C68.5625 32.119 69.3619 30.1891 70.7848 28.7661C72.2078 27.3432 74.1377 26.5438 76.15 26.5438L75.9563 26.4813Z" fill="url(#paint0_linear_215_16)"/>
<path d="M100.531 186.937C144.906 186.937 142.1 167.687 142.1 167.687V147.812H99.9062V141.562H159.094C159.094 141.562 187.5 144.737 187.5 99.9687C187.5 55.1999 162.419 56.7687 162.419 56.7687H147.75V77.4999C147.75 77.4999 148.562 102.581 123.375 102.581H81.0937C81.0937 102.581 57.5 102.225 57.5 125.425V163.75C57.5 163.75 53.925 186.95 100.262 186.95H100.512L100.531 186.937ZM123.856 173.519C122.356 173.557 120.878 173.149 119.61 172.347C118.341 171.545 117.339 170.384 116.73 169.013C116.121 167.641 115.933 166.12 116.188 164.641C116.444 163.162 117.132 161.792 118.167 160.705C119.201 159.617 120.534 158.861 121.998 158.531C123.462 158.202 124.991 158.314 126.392 158.853C127.792 159.392 129.001 160.335 129.866 161.561C130.731 162.788 131.212 164.243 131.25 165.744V165.931C131.25 167.944 130.451 169.873 129.028 171.296C127.605 172.719 125.675 173.519 123.662 173.519H123.85H123.856Z" fill="url(#paint1_linear_215_16)"/>
<defs>
<linearGradient id="paint0_linear_215_16" x1="29.7948" y1="30.1432" x2="112.836" y2="112.997" gradientUnits="userSpaceOnUse">
<stop stop-color="#387EB8"/>
<stop offset="1" stop-color="#366994"/>
</linearGradient>
<linearGradient id="paint1_linear_215_16" x1="78.9219" y1="84.116" x2="173.798" y2="166.945" gradientUnits="userSpaceOnUse">
<stop stop-color="#FFE052"/>
<stop offset="1" stop-color="#FFC331"/>
</linearGradient>
</defs>
</svg>
