<svg width="200" height="200" viewBox="0 0 200 200" fill="none" xmlns="http://www.w3.org/2000/svg">
<path d="M0 100V200H200V0H0V100Z" fill="#007ACC"/>
<path d="M44.2281 100.664L44.1648 108.854H70.1961V182.823H88.6086V108.854H114.641V100.823C114.641 96.3773 114.545 92.6632 114.419 92.5679C114.323 92.4414 98.4812 92.3773 79.2758 92.4093L44.3227 92.5047L44.2281 100.663V100.664ZM161.38 92.2718C166.459 93.5414 170.333 95.7953 173.888 99.4781C175.73 101.447 178.459 105.034 178.682 105.891C178.745 106.144 170.047 111.986 164.777 115.256C164.587 115.383 163.824 114.558 162.967 113.287C160.396 109.541 157.698 107.923 153.57 107.637C147.508 107.224 143.602 110.398 143.634 115.7C143.634 117.256 143.856 118.177 144.491 119.446C145.825 122.209 148.301 123.859 156.079 127.224C170.396 133.383 176.523 137.446 180.333 143.224C184.587 149.669 185.539 159.955 182.65 167.605C179.476 175.923 171.603 181.573 160.523 183.446C157.095 184.049 148.968 183.954 145.285 183.287C137.254 181.859 129.634 177.891 124.936 172.684C123.095 170.653 119.507 165.351 119.73 164.97C119.825 164.843 120.65 164.335 121.57 163.795C122.459 163.287 125.825 161.351 128.999 159.51L134.745 156.177L135.952 157.955C137.634 160.525 141.316 164.049 143.539 165.224C149.92 168.589 158.682 168.113 162.999 164.24C164.841 162.558 165.602 160.812 165.602 158.24C165.602 155.923 165.316 154.907 164.11 153.161C162.555 150.938 159.38 149.066 150.364 145.161C140.047 140.716 135.602 137.955 131.539 133.573C129.19 131.034 126.967 126.97 126.047 123.573C125.285 120.748 125.094 113.669 125.698 110.812C127.825 100.843 135.348 93.8906 146.205 91.8273C149.729 91.1609 157.92 91.4148 161.38 92.2718V92.2718Z" fill="white"/>
</svg>
